<svg xmlns:rdf="http://www.w3.org/1999/02/22-rdf-syntax-ns#" xmlns="http://www.w3.org/2000/svg" height="378" width="379" version="1.1" xmlns:cc="http://creativecommons.org/ns#" xmlns:dc="http://purl.org/dc/elements/1.1/">
 <defs></defs>
 <metadata>
  <rdf:RDF>
   <cc:Work rdf:about="A simple halved joint">
    <dc:format>image/svg+xml</dc:format>
    <dc:type rdf:resource="http://purl.org/dc/dcmitype/StillImage"/>
    <dc:title/>
   </cc:Work>
  </rdf:RDF>
 </metadata>
 <g style="stroke-linejoin:round;stroke-linecap:round;stroke-width:0.8;stroke:#000000;stroke-dashoffset:0;">
  <g style="stroke-dasharray:none">
    <path style="fill:#ffffff;" d="m47.109,338.41,4.35,30.9,16.65,6.9-3.9-30.9z"/>
    <path style="fill:#ffffff;" d="m195.61,85.806-0.45-31.8-145.65-27.75,3.3,29.55z"/>
    <path style="fill:#dddddd;" d="m117.76,121.51,2.55,36.45,166.5-127.35,1.35-27.6z"/>
    <path style="fill:#ffffff;" d="m100.36,117.31,3,36.15,16.95,4.5-2.55-36.45z"/>
    <path style="fill:#ffffff;" d="m371.86,87.756-161.25-30.75,0,31.95,157.5,33z"/>
    <path style="fill:#ffffff;" d="m160.96,228.61,0.45,14.1,14.85,4.65-0.45-14.1z"/>
    
    <g style="fill:#cbcbcb;">
      <path d="m100.36,117.31,174.45-116.4,13.35,2.1-170.4,118.5z"/>
      <path d="m252.76,156.01-13.2-3.15-78.6,75.75,14.85,4.65z"/>
      <path d="m176.26,247.36-14.85-4.65-8.85,8.85,15,4.8z"/>
      <path d="m166.96,242.11-102.75,103.2-17.1-6.9,104.85-101.1z"/>
      <path d="m49.509,26.256,9.75-4.5,318.3,59.4-5.7,6.6z"/>
    </g>
    <path style="fill:#dddddd;" d="m371.86,87.756-3.75,34.2,5.55-7.05,3.9-33.75z"/>
    <path style="fill:#dddddd;" d="m252.76,156.01-0.75,25.05-183.9,195.15-3.9-30.9,102.75-103.2,0.6,14.25,8.7-9-0.45-14.1z"/>
  </g>
  
  <g style="stroke-dasharray:3,6;stroke-width:0.2;fill:none;">
    <path d="m103.36,153.46,170.25-124.95,13.2,2.1"/>
    <path d="m273.61,28.506,1.2-27.6"/>
    <path d="m203.41,48.606,0.15,31.35-141.3-29.1"/>
    <path d="m52.809,55.806,9.45-4.95-3-29.1"/>
    <path d="m195.31,70.056,15.3,3,7.8-5.7-15-3z"/>
    <path d="m151.96,237.31,0.6,14.25"/>
    <path d="m373.66,114.91-155.25-31.95,0.15-31.5"/>
    <path d="m239.56,152.86-0.6,24.9,13.05,3.3"/>
    <path d="m195.16,54.006,0.45,31.8-142.8-30"/>
    <path d="M51.459,369.31,238.96,177.76"/>
    <path d="m152.56,251.56,15,4.8"/>
    <path d="m152.56,251.56,8.85-8.85-0.45-14.1,0.45,14.1,14.85,4.65"/>
    <path d="m117.76,121.51,2.55,36.45,166.5-127.35"/>
  </g>

  <g style="stroke-dasharray:none;">
    <path style="fill:#dddddd;" d="m331.36,234.91,6.9-10.05-3.3,32.1-6.6,10.35z"/>
    <path style="fill:#cbcbcb;" d="m0.90904,143.26,11.1-6.6,326.25,88.2-6.9,10.05z"/>
    <path style="fill:#dddddd;" d="m150.91,214.81-0.75-15,9.3-8.25,0.6,14.85z"/>
    <path style="fill:#ffffff;" d="m0.90904,143.26,4.5,28.5,145.5,43.05-0.75-15,15.6,4.5,0.45,15.15,162.15,47.85,3-32.4z"/>
  </g>
  
  <g style="stroke-dasharray:3,6;stroke-width:0.2;fill:none;">
    <path d="m150.91,214.81-0.75-15,9.3-8.25,0.6,14.85z"/>
    <path d="m159.46,191.56,15.3,4.35-9,8.4"/>
    <path d="m174.76,195.91,0.45,14.85-9,8.7"/>
    <path d="m5.409,171.76,10.65-6.9-4.05-28.2"/>
    <path d="m175.21,210.76,159.75,46.2"/>
    <path d="m16.059,164.86,144,41.55"/>
  </g>
 </g>
</svg>
