<?xml version="1.0" encoding="UTF-8" standalone="no"?>
<svg
   xmlns:dc="http://purl.org/dc/elements/1.1/"
   xmlns:cc="http://creativecommons.org/ns#"
   xmlns:rdf="http://www.w3.org/1999/02/22-rdf-syntax-ns#"
   xmlns:svg="http://www.w3.org/2000/svg"
   xmlns="http://www.w3.org/2000/svg"
   version="1.1"
   id="svg2"
   viewBox="0 0 660.19652 391.51892"
   height="110.49534mm"
   width="186.32213mm">
  <defs
     id="defs4" />
  <metadata
     id="metadata7">
    <rdf:RDF>
      <cc:Work
         rdf:about="">
        <dc:format>image/svg+xml</dc:format>
        <dc:type
           rdf:resource="http://purl.org/dc/dcmitype/StillImage" />
        <dc:title></dc:title>
      </cc:Work>
    </rdf:RDF>
  </metadata>
  <g
     transform="translate(35.750227,-163.33556)"
     id="layer1">
    <path
       id="rect4136"
       d="m 455.51157,174.2585 -344.39438,247.22978 0,113.13672 215.16211,-154.45898 0,-47.53711 66.2207,0 223.69336,-160.58203"
       style="color:#000000;clip-rule:nonzero;display:inline;overflow:visible;visibility:visible;opacity:1;isolation:auto;mix-blend-mode:normal;color-interpolation:sRGB;color-interpolation-filters:linearRGB;solid-color:#000000;solid-opacity:1;fill:none;fill-opacity:1;fill-rule:nonzero;stroke:#000000;stroke-width:4;stroke-linecap:butt;stroke-linejoin:round;stroke-miterlimit:4;stroke-dasharray:none;stroke-dashoffset:0;stroke-opacity:1;color-rendering:auto;image-rendering:auto;shape-rendering:auto;text-rendering:auto;enable-background:accumulate" />
    <path
       d="m 392.4031,405.16154 -66.12383,0 0,-36.26651 0,-36.26652 66.12383,0 0,36.26652 z m 0,-36.26651 -66.12383,36.26648 m 66.12383,2e-5 -66.12383,-36.2665 66.12383,0 -66.1238,-36.26612 m -3e-5,36.26612 66.12383,-36.26652"
       style="color:#000000;clip-rule:nonzero;display:inline;overflow:visible;visibility:visible;opacity:1;isolation:auto;mix-blend-mode:normal;color-interpolation:sRGB;color-interpolation-filters:linearRGB;solid-color:#000000;solid-opacity:1;fill:none;fill-opacity:1;fill-rule:nonzero;stroke:#000000;stroke-width:1.5;stroke-linecap:butt;stroke-linejoin:round;stroke-miterlimit:4;stroke-dasharray:none;stroke-dashoffset:0;stroke-opacity:1;color-rendering:auto;image-rendering:auto;shape-rendering:auto;text-rendering:auto;enable-background:accumulate"
       id="rect4139-6" />
    <path
       id="rect4139-7"
       d="m 326.27927,546.97245 0,-141.81092 66.12383,0 0,141.81092"
       style="color:#000000;clip-rule:nonzero;display:inline;overflow:visible;visibility:visible;opacity:1;isolation:auto;mix-blend-mode:normal;color-interpolation:sRGB;color-interpolation-filters:linearRGB;solid-color:#000000;solid-opacity:1;fill:none;fill-opacity:1;fill-rule:nonzero;stroke:#000000;stroke-width:1.5;stroke-linecap:butt;stroke-linejoin:round;stroke-miterlimit:4;stroke-dasharray:none;stroke-dashoffset:0;stroke-opacity:1;color-rendering:auto;image-rendering:auto;shape-rendering:auto;text-rendering:auto;enable-background:accumulate" />
    <path
       d="m 351.87875,405.1947 c -6.93592,12.61463 -15.78257,23.70068 -25.56183,34.04064 m -0.0842,14.31272 c 14.41194,-11.3798 29.7155,-25.88027 47.28382,-48.30738 m 6.80263,-0.0759 c -4.28632,24.69596 -32.23814,48.39634 -54.05708,75.15688 m 0.19475,23.85586 c 26.21917,-32.87748 42.32402,-56.22799 65.9931,-84.6817 m 0.1177,20.29862 c -20.36961,32.61792 -42.81999,57.38716 -66.30101,97.74484 m 19.74468,8.7598 c 16.22469,-25.84119 31.56514,-50.49285 46.76609,-72.28451 m -0.0504,28.83561 c -7.94834,14.88831 -15.85475,29.73408 -23.48685,44.6904"
       style="fill:none;fill-rule:evenodd;stroke:#000000;stroke-width:1px;stroke-linecap:butt;stroke-linejoin:miter;stroke-opacity:1"
       id="path4200" />
    <text
       id="text4245"
       y="239.50793"
       x="72.911095"
       style="font-style:normal;font-weight:normal;font-size:25px;line-height:125%;font-family:Sans;text-align:end;letter-spacing:0px;word-spacing:0px;text-anchor:end;fill:#000000;fill-opacity:1;stroke:none;stroke-width:1px;stroke-linecap:butt;stroke-linejoin:miter;stroke-opacity:1"
       xml:space="preserve"><tspan
         y="239.50793"
         x="72.911095"
         id="tspan4247">Rafter</tspan></text>
    <text
       id="text4251"
       y="296.80872"
       x="73.497032"
       style="font-style:normal;font-weight:normal;font-size:25px;line-height:125%;font-family:Sans;text-align:end;letter-spacing:0px;word-spacing:0px;text-anchor:end;fill:#000000;fill-opacity:1;stroke:none;stroke-width:1px;stroke-linecap:butt;stroke-linejoin:miter;stroke-opacity:1"
       xml:space="preserve"><tspan
         y="296.80872"
         x="73.497032"
         id="tspan4253">Seat cut</tspan></text>
    <text
       id="text4255"
       y="357.58029"
       x="73.497032"
       style="font-style:normal;font-weight:normal;font-size:25px;line-height:125%;font-family:Sans;text-align:end;letter-spacing:0px;word-spacing:0px;text-anchor:end;fill:#000000;fill-opacity:1;stroke:none;stroke-width:1px;stroke-linecap:butt;stroke-linejoin:miter;stroke-opacity:1"
       xml:space="preserve"><tspan
         y="357.58029"
         x="73.497032"
         id="tspan4257">Heel cut</tspan></text>
    <text
       id="text4259"
       y="360.71616"
       x="470.08994"
       style="font-style:normal;font-weight:normal;font-size:25px;line-height:125%;font-family:Sans;text-align:start;letter-spacing:0px;word-spacing:0px;text-anchor:start;fill:#000000;fill-opacity:1;stroke:none;stroke-width:1px;stroke-linecap:butt;stroke-linejoin:miter;stroke-opacity:1"
       xml:space="preserve"><tspan
         y="360.71616"
         x="470.08994"
         id="tspan4261">Double</tspan><tspan
         id="tspan4319"
         y="391.96616"
         x="470.08994">top plate</tspan></text>
    <text
       id="text4263"
       y="491.67175"
       x="469.11337"
       style="font-style:normal;font-weight:normal;font-size:25px;line-height:125%;font-family:Sans;text-align:start;letter-spacing:0px;word-spacing:0px;text-anchor:start;fill:#000000;fill-opacity:1;stroke:none;stroke-width:1px;stroke-linecap:butt;stroke-linejoin:miter;stroke-opacity:1"
       xml:space="preserve"><tspan
         y="491.67175"
         x="469.11337"
         id="tspan4265">Stud</tspan></text>
    <path
       d="m 375.27779,489.61122 83.96841,0 m -50.75633,-120.73475 50.75633,0 m -60.98736,36.01423 c 7.55982,0 3.53964,-33.31347 10.23103,-36.01423 -6.69139,-2.70076 -2.67121,-36.01461 -10.23103,-36.01461 m -84.54556,22.87982 -230.608393,0 m 237.174383,23.11293 c -4.85168,0 -2.27164,-21.37966 -6.56599,-23.11293 4.29435,-1.73327 1.71431,-23.11317 6.56599,-23.11317 m 39.06174,-13.88959 0,-20.0033 -276.236123,0 m 243.174383,26.56929 c -10e-6,-4.85168 30.5824,-2.27164 33.06174,-6.56599 2.47934,4.29435 33.06209,1.71431 33.06209,6.56599 m -309.298213,-85.10535 280.549913,0"
       style="fill:none;fill-rule:evenodd;stroke:#000000;stroke-width:1px;stroke-linecap:butt;stroke-linejoin:miter;stroke-opacity:1"
       id="path4323" />
  </g>
</svg>
