<?xml version="1.0" encoding="utf-8"?>
<!-- Generator: Adobe Illustrator 17.1.0, SVG Export Plug-In . SVG Version: 6.00 Build 0)  -->
<!DOCTYPE svg PUBLIC "-//W3C//DTD SVG 1.1//EN" "http://www.w3.org/Graphics/SVG/1.1/DTD/svg11.dtd">
<svg version="1.1" xmlns="http://www.w3.org/2000/svg" xmlns:xlink="http://www.w3.org/1999/xlink" x="0px" y="0px"
	 viewBox="0 0 565.8 480" enable-background="new 0 0 565.8 480" xml:space="preserve">
<g id="colour">
	<polygon fill="#C69C6D" points="125.4,302.4 118,309.7 118,324.5 132.8,339.3 118,354.1 93.8,329.9 45.5,281.5 75,252 	"/>
	<polygon fill="#C69C6D" points="142.6,95.6 135.3,103 135.3,117.8 150,132.6 135.3,147.3 111.1,123.1 46.6,58.7 86.5,39 	"/>
	<polygon fill="#C69C6D" points="135.3,147.3 135.3,162.1 164.8,191.7 164.8,206.4 45.4,87 46.6,58.7 	"/>
	<polygon fill="#C69C6D" points="117.5,353.5 117.5,368.2 147.6,398.5 147.6,383.7 206.7,442.8 183.3,449 35.5,301.1 45.5,281.5 	
		"/>
	<polygon fill="#C69C6D" points="388.9,369 388.9,383.7 419,414 419,399.2 470.2,450.2 447.8,457.6 307,316.6 310.1,290.2 	"/>
	<polygon fill="#8C6239" points="157.4,139.9 135.3,162.1 135.3,147.3 150,132.6 	"/>
	<polygon fill="#8C6239" points="140.2,346.7 118,368.8 118,354.1 132.8,339.3 	"/>
	<polygon fill="#8C6239" points="416,366.5 388.9,383.7 388.9,369 407.4,357.9 	"/>
	<polygon fill="#8C6239" points="442,333 418.5,368.7 418.5,354.2 441.9,318.9 	"/>
	<polygon fill="#8C6239" points="194.4,176.9 164.8,206.4 164.8,191.7 194.4,162.1 	"/>
	<polygon fill="#C69C6D" points="194.4,162.1 164.8,191.7 135.3,162.1 157.4,139.9 164.8,147.3 172.2,139.9 	"/>
	<polygon fill="#8C6239" points="177.2,144.9 164.8,155.8 153.2,144.2 164.8,132.6 	"/>
	<polygon fill="#C69C6D" points="177.1,354.2 236.2,413.3 206.7,442.8 147.6,383.7 147.6,398.5 118,369 140.2,346.8 147.6,354.2 
		155,346.8 169.7,361.6 	"/>
	<polygon fill="#8C6239" points="160,351.7 147.5,362.5 135.9,350.9 147.6,339.3 	"/>
	<polygon fill="#C69C6D" points="164.8,147.3 135.3,117.8 135.3,103 164.8,132.6 	"/>
	<polygon fill="#C69C6D" points="147.6,354.1 118,324.5 118,309.7 147.6,339.3 	"/>
	<polygon fill="#8C6239" points="194.4,132.6 247.3,79.6 233.8,63.6 164.8,132.6 164.8,147.3 187,125.2 194.4,117.8 	"/>
	<polygon fill="#8C6239" points="177.1,339.3 230.1,286.4 223.9,263.1 147.6,339.3 147.6,354.1 169.7,331.9 177.1,325.4 	"/>
	<polygon fill="#8C6239" points="526.8,275.4 524.3,248.4 448,324.6 448,354.2 	"/>
	<polygon fill="#C69C6D" points="164.8,132.6 135.3,103 214.1,24.2 233.8,63.6 	"/>
	
		<rect x="150.1" y="232.5" transform="matrix(0.7071 0.7071 -0.7071 0.7071 252.6341 -36.9904)" fill="#C69C6D" width="41.8" height="108"/>
	<polygon fill="#C69C6D" points="381.5,211.4 276.9,106.7 280.6,80.8 310.1,51.3 381.5,122.7 381.5,137.5 395.1,151 411.1,167 
		381.5,196.6 	"/>
	<polygon fill="#8C6239" points="411.1,181.8 381.5,211.4 381.5,196.6 411.1,167 	"/>
	<polygon fill="#8C6239" points="489.9,88.2 425.8,152.3 425.6,137.7 418.5,144.9 395.1,168.3 395.1,153.5 489.9,58.7 	"/>
	<polygon fill="#C69C6D" points="489.9,58.7 395.1,153.5 395.1,94.8 460.3,29.1 	"/>
	<polygon fill="#C69C6D" points="388.9,369 310.1,290.2 343.4,264.4 397.5,318.8 388.9,324.5 388.9,339.4 407.4,357.9 	"/>
	<polygon fill="#C69C6D" points="425.8,152.3 418.5,144.9 425.8,137.5 	"/>
	<polygon fill="#C69C6D" points="177.1,339.3 169.7,331.9 177.1,324.5 	"/>
	<polygon fill="#C69C6D" points="194.4,132.6 187,125.2 194.4,117.8 	"/>
	<polygon fill="#8C6239" points="407.7,163.8 395.1,175.7 398.6,166 401.7,157.3 	"/>
	<polygon fill="#C69C6D" points="448,353.7 435.9,342.2 441.9,333.7 441.9,318.9 448,324.6 	"/>
	<polygon fill="#C69C6D" points="418.5,398.5 418.5,413.3 388.9,383.7 416,366.5 418.5,368.7 424.6,359.9 435.9,371.8 442,362.9 
		502.2,423.1 470.2,450.2 	"/>
	<polygon fill="#8C6239" points="425.5,360.8 418.9,372 414.5,367.4 424.4,359.9 	"/>
	<polygon fill="#C69C6D" points="448,324.6 441.9,318.9 418.5,354.2 418.5,368.7 388.9,339.4 389.3,324.6 418.5,304.9 418.5,295.1 
		488.6,224.9 524.3,248.4 	"/>
</g>
<g id="line_art">
	<path id="path3017" fill="none" stroke="#000" stroke-linejoin="round" d="M214.1,24.2
		L135.3,103l29.6,29.6l69-69"/>
	<path id="path3025" fill="none" stroke="#000" stroke-linejoin="round" d="M135.3,103v14.8
		l29.6,29.6l29.6-29.6"/>
	<path id="path3027" fill="none" stroke="#000" d="M164.8,147.3v-14.8"/>
	<path id="path3029" fill="none" stroke="#000" d="M187,125.2l7.4,7.4l52.9-52.9"/>
	
		<path id="path3031" fill="none" stroke="#000" stroke-linecap="round" stroke-linejoin="round" d="
		M194.4,117.8v14.8"/>
	<path id="path3033" fill="none" stroke="#000" d="M86,39l56.6,56.6"/>
	<path id="path3035" fill="none" stroke="#000" d="M46.6,58.7l88.7,88.7l14.8-14.8"/>
	<path id="path3037" fill="none" stroke="#000" stroke-linejoin="round" d="M157.4,139.9
		l-22.2,22.2l29.6,29.6l29.6-29.6l-22.2-22.2"/>
	<path id="path3039" fill="none" stroke="#000" d="M135.3,162.1v-14.8"/>
	<path id="path3041" fill="none" stroke="#000" d="M45.4,87l119.4,119.4l29.6-29.6v-14.8"/>
	<path id="path3043" fill="none" stroke="#000" d="M164.8,206.4v-14.8"/>
	<path id="path3059" fill="none" stroke="#000" d="M276.9,106.7l104.7,104.7l29.6-29.6V167
		l-7.4-7.4"/>
	
		<path id="path3061" fill="none" stroke="#000" stroke-linecap="round" d="
		M460.3,29.1l-65.3,65.3v73.9l30.8-30.8"/>
	<path id="path3063" fill="none" stroke="#000" d="M418.5,144.9l7.4,7.4l64-64"/>
	<path id="path3065" fill="none" stroke="#000" d="M425.8,152.3v-14.8"/>
	<path id="path3067" fill="none" stroke="#000" d="M395.1,153.5l94.8-94.8"/>
	<path id="path3069" fill="none" stroke="#000" d="M381.5,211.4v-88.7l-71.4-71.4"/>
	<path id="path3071" fill="none" stroke="#000" d="M381.5,181.8l-101-101"/>
	<path id="path3073" fill="none" stroke="#000" d="M395.1,151l-13.5-13.5"/>
	<path id="path3075" fill="none" stroke="#000" d="M411.1,167l-29.6,29.6"/>
	
		<path id="path3077" fill="none" stroke="#000" stroke-linejoin="round" d="
		M169.7,332l7.4,7.4l52.9-52.9"/>
	<path id="path3079" fill="none" stroke="#000" stroke-linejoin="round" d="M177.1,339.4v-14.8
		l-29.6,29.6L118,324.6v-14.8l76.3-76.3"/>
	<path id="path3081" fill="none" stroke="#000" d="M118,309.9
		l29.6,29.6l76.3-76.3"/>
	<path id="path3083" fill="none" stroke="#000" d="M147.6,339.4v14.8"/>
	<path id="path3085" fill="none" stroke="#000" d="M125.4,302.5
		L74.9,252"/>
	
		<path id="path3087" fill="none" stroke="#000" stroke-linejoin="round" d="
		M236.2,413.3l-59.1-59.1l-29.6,29.6l59.1,59.1"/>
	<path id="path3089" fill="none" stroke="#000" d="M132.8,339.4L118,354.2l-72.6-72.6"/>
	<path id="path3091" fill="none" stroke="#000" d="M118,354.2V369l29.6,29.6v-14.8"/>
	<path id="path3093" fill="none" stroke="#000" d="M169.7,361.6L155,346.8"/>
	<path id="path3095" fill="none" stroke="#000" d="M140.2,346.8L118,369"/>
	<path id="path3097" fill="none" stroke="#000" d="M183.3,449L35.5,301.2"/>
	<path id="path3099" fill="none" stroke="#000" d="M307.6,317.2
		L448,457.6"/>
	
		<path id="path3101" fill="none" stroke="#000" stroke-linejoin="round" d="
		M488.6,224.9l-70.2,70.2l6.2,6.2l-35.7,23.4l29.6,29.6l23.4-35.7l6.2,6.2l76.3-76.3"/>
	<path id="path3103" fill="none" stroke="#000" d="M388.9,324.6
		v14.8l29.6,29.6l23.4-35.7v-14.8"/>
	<path id="path3105" fill="none" stroke="#000" d="M418.5,354.2V369"/>
	<path id="path3107" fill="none" stroke="#000" d="M435.7,341.9l12.3,12.3l78.8-78.8"/>
	<path id="path3109" fill="none" stroke="#000" d="M448,324.6v29.6"/>
	<path id="path3115" fill="none" stroke="#000" d="M418.5,295.1v9.9"/>
	<path id="path3119" fill="none" stroke="#000" d="M397.5,318.5
		l-54.2-54.2"/>
	
		<path id="path3121" fill="none" stroke="#000" stroke-linejoin="round" d="
		M502.2,423.1l-60.3-60.3l-23.4,35.7v14.8l-29.6-29.6V369l-78.8-78.8"/>
	<path id="path3123" fill="none" stroke="#000" d="M418.5,398.5
		l51.7,51.7"/>
	<path id="path3125" fill="none" stroke="#000" d="M388.9,369l18.5-11.1"/>
	<path id="path3127" fill="none" stroke="#000" d="M388.9,383.7l27.1-17.2"/>
	<path id="path3129" fill="none" stroke="#000" d="M435.7,371.4
		l-11.1-11.1"/>
	<path id="path3145" fill="none" stroke="#000" d="M388.9,369"/>
</g>
<g id="Text">
	<text transform="matrix(1 0 0 1 108 26)" font-family="'Arial'" font-size="21">Half Lap</text>
	<text transform="matrix(1 0 0 1 300 26)" font-family="'Arial'" font-size="21">Mitred Half Lap</text>
	<text transform="matrix(1 0 0 1 81 238)" font-family="'Arial'" font-size="21">Cross Lap</text>
	<text transform="matrix(1 0 0 1 290 238)"><tspan x="0" y="0" font-family="'Arial'" font-size="21">Dovetail Crossed</tspan><tspan x="63" y="25" font-family="'Arial'" font-size="21">Lap</tspan></text>
</g>
</svg>
